<?xml version="1.0" encoding="UTF-8" standalone="no"?>
<!-- Created with Inkscape (http://www.inkscape.org/) -->

<svg
   width="16"
   height="16"
   viewBox="0 0 4.2333333 4.2333332"
   version="1.1"
   id="svg1"
   inkscape:version="1.4.4 (dcaf3e7d9e, 2026-05-05)"
   sodipodi:docname="Block_Template.svg"
   inkscape:export-filename="Uno.png"
   inkscape:export-xdpi="192"
   inkscape:export-ydpi="192"
   xmlns:inkscape="http://www.inkscape.org/namespaces/inkscape"
   xmlns:sodipodi="http://sodipodi.sourceforge.net/DTD/sodipodi-0.dtd"
   xmlns:xlink="http://www.w3.org/1999/xlink"
   xmlns="http://www.w3.org/2000/svg"
   xmlns:svg="http://www.w3.org/2000/svg">
  <sodipodi:namedview
     id="namedview1"
     pagecolor="#ffffff"
     bordercolor="#000000"
     borderopacity="0.25"
     inkscape:showpageshadow="2"
     inkscape:pageopacity="0.0"
     inkscape:pagecheckerboard="0"
     inkscape:deskcolor="#d1d1d1"
     inkscape:document-units="px"
     showgrid="true"
     inkscape:zoom="8"
     inkscape:cx="-77.5625"
     inkscape:cy="8.4375"
     inkscape:window-width="3840"
     inkscape:window-height="2132"
     inkscape:window-x="0"
     inkscape:window-y="0"
     inkscape:window-maximized="1"
     inkscape:current-layer="layer1"
     showguides="false">
    <inkscape:grid
       id="grid5"
       units="px"
       originx="0"
       originy="0"
       spacingx="0.13229166"
       spacingy="0.13229166"
       empcolor="#0099e5"
       empopacity="0.30196078"
       color="#0099e5"
       opacity="0.14901961"
       empspacing="2"
       enabled="true"
       visible="true" />
  </sodipodi:namedview>
  <defs
     id="defs1">
    <linearGradient
       id="linearGradient123"
       inkscape:collect="always">
      <stop
         style="stop-color:#ffffff;stop-opacity:1;"
         offset="0"
         id="stop123" />
      <stop
         style="stop-color:#ffffff;stop-opacity:0;"
         offset="1"
         id="stop124" />
    </linearGradient>
    <linearGradient
       id="linearGradient118"
       inkscape:collect="always">
      <stop
         style="stop-color:#ffffff;stop-opacity:1;"
         offset="0"
         id="stop118" />
      <stop
         style="stop-color:#ffffff;stop-opacity:0;"
         offset="0"
         id="stop119" />
    </linearGradient>
    <linearGradient
       id="linearGradient117"
       inkscape:collect="always">
      <stop
         style="stop-color:#ffffff;stop-opacity:1;"
         offset="0.04032783"
         id="stop116" />
      <stop
         style="stop-color:#ffffff;stop-opacity:0;"
         offset="1"
         id="stop117" />
    </linearGradient>
    <linearGradient
       id="linearGradient94"
       inkscape:collect="always">
      <stop
         style="stop-color:#0f0f0f;stop-opacity:1;"
         offset="0"
         id="stop94" />
      <stop
         style="stop-color:#0f0f0f;stop-opacity:0;"
         offset="1"
         id="stop95" />
    </linearGradient>
    <linearGradient
       id="linearGradient56"
       inkscape:collect="always">
      <stop
         style="stop-color:#ffffff;stop-opacity:1;"
         offset="0.5238564"
         id="stop56" />
      <stop
         style="stop-color:#ffffff;stop-opacity:0;"
         offset="1"
         id="stop57" />
    </linearGradient>
    <linearGradient
       inkscape:collect="always"
       xlink:href="#linearGradient117"
       id="linearGradient57"
       x1="3.6176074"
       y1="3.3447559"
       x2="3.4481714"
       y2="2.5095048"
       gradientUnits="userSpaceOnUse"
       gradientTransform="rotate(180,2.1166668,1.9182272)" />
    <linearGradient
       inkscape:collect="always"
       xlink:href="#linearGradient56"
       id="linearGradient65"
       gradientUnits="userSpaceOnUse"
       gradientTransform="matrix(0.99638589,0,0,0.9936259,0.01434281,0.02277116)"
       x1="4.2211881"
       y1="4.2211881"
       x2="3.1694505"
       y2="2.8951154" />
    <linearGradient
       inkscape:collect="always"
       xlink:href="#linearGradient118"
       id="linearGradient119"
       x1="4.1051755"
       y1="4.9444008"
       x2="3.4354491"
       y2="4.9444008"
       gradientUnits="userSpaceOnUse"
       gradientTransform="translate(0,-1.0583333)" />
    <linearGradient
       inkscape:collect="always"
       xlink:href="#linearGradient125"
       id="linearGradient126"
       x1="0.79220355"
       y1="3.8060851"
       x2="3.4406774"
       y2="3.8060851"
       gradientUnits="userSpaceOnUse"
       gradientTransform="translate(0.52916667)" />
    <linearGradient
       id="linearGradient125"
       inkscape:collect="always">
      <stop
         style="stop-color:#ffffff;stop-opacity:0;"
         offset="0"
         id="stop128" />
      <stop
         style="stop-color:#ffffff;stop-opacity:1;"
         offset="0.10293816"
         id="stop125" />
      <stop
         style="stop-color:#ffffff;stop-opacity:0.45098039;"
         offset="0.89999998"
         id="stop129" />
      <stop
         style="stop-color:#ffffff;stop-opacity:0;"
         offset="1"
         id="stop126" />
      <stop
         style="stop-color:#ffffff;stop-opacity:0;"
         offset="1"
         id="stop127" />
    </linearGradient>
    <linearGradient
       inkscape:collect="always"
       xlink:href="#linearGradient94"
       id="linearGradient131"
       x1="7.5447588"
       y1="4.1010418"
       x2="7.5447588"
       y2="3.2742188"
       gradientUnits="userSpaceOnUse"
       gradientTransform="translate(-5.2916666)" />
    <linearGradient
       inkscape:collect="always"
       xlink:href="#linearGradient94"
       id="linearGradient37"
       gradientUnits="userSpaceOnUse"
       gradientTransform="translate(-5.2916666)"
       x1="9.1322594"
       y1="3.4354491"
       x2="6.3417315"
       y2="1.045931" />
    <linearGradient
       inkscape:collect="always"
       xlink:href="#linearGradient28"
       id="linearGradient122"
       gradientUnits="userSpaceOnUse"
       gradientTransform="matrix(0.99999999,0,0,0.99999874,-4.2333334,-7.276037)"
       x1="2.1083984"
       y1="3.6421549"
       x2="0.79374999"
       y2="3.6421549" />
    <linearGradient
       id="linearGradient28"
       inkscape:collect="always">
      <stop
         style="stop-color:#0f0f0f;stop-opacity:1;"
         offset="0.79124492"
         id="stop28" />
      <stop
         style="stop-color:#0f0f0f;stop-opacity:0;"
         offset="1"
         id="stop29" />
    </linearGradient>
    <linearGradient
       inkscape:collect="always"
       xlink:href="#linearGradient121"
       id="linearGradient29"
       x1="2.1083984"
       y1="3.6421549"
       x2="0.79374999"
       y2="3.6421549"
       gradientUnits="userSpaceOnUse"
       gradientTransform="matrix(0.99999999,0,0,0.99999874,0,4.6140611e-6)" />
    <linearGradient
       id="linearGradient121"
       inkscape:collect="always">
      <stop
         style="stop-color:#0f0f0f;stop-opacity:1;"
         offset="0.77973849"
         id="stop120" />
      <stop
         style="stop-color:#0f0f0f;stop-opacity:0;"
         offset="1"
         id="stop121" />
    </linearGradient>
    <linearGradient
       inkscape:collect="always"
       xlink:href="#linearGradient94"
       id="linearGradient40"
       x1="0.6454559"
       y1="3.9475708"
       x2="10.88856"
       y2="3.9475708"
       gradientUnits="userSpaceOnUse"
       gradientTransform="translate(0.52916666)" />
    <linearGradient
       inkscape:collect="always"
       xlink:href="#linearGradient94"
       id="linearGradient95"
       x1="-0.92810869"
       y1="1.3828613"
       x2="-0.92810869"
       y2="1.9823079"
       gradientUnits="userSpaceOnUse"
       gradientTransform="matrix(1.3333334,0,0,1.0909091,0.3086806,-0.19242423)" />
    <linearGradient
       inkscape:collect="always"
       xlink:href="#linearGradient123"
       id="linearGradient97"
       x1="-0.92190754"
       y1="2.3192382"
       x2="-0.92190754"
       y2="2.1104655"
       gradientUnits="userSpaceOnUse"
       gradientTransform="matrix(1.3333335,0,0,1.3333331,0.30868063,-0.70555523)" />
    <linearGradient
       inkscape:collect="always"
       xlink:href="#linearGradient123"
       id="linearGradient82"
       x1="1.6856852"
       y1="2.115633"
       x2="1.6856852"
       y2="1.5843993"
       gradientUnits="userSpaceOnUse"
       gradientTransform="translate(-0.52916666)" />
    <radialGradient
       inkscape:collect="always"
       xlink:href="#linearGradient123"
       id="radialGradient84"
       cx="1.7528646"
       cy="2.1497395"
       fx="1.7528646"
       fy="2.1497395"
       r="0.033072915"
       gradientUnits="userSpaceOnUse"
       gradientTransform="matrix(4.0000001,0,0,4.0000001,-4.7625002,-7.0114588)" />
    <radialGradient
       inkscape:collect="always"
       xlink:href="#linearGradient123"
       id="radialGradient85"
       gradientUnits="userSpaceOnUse"
       gradientTransform="matrix(4.0000001,0,0,4.0000001,-4.7625002,-6.4822921)"
       cx="1.7528646"
       cy="2.1497395"
       fx="1.7528646"
       fy="2.1497395"
       r="0.033072915" />
    <radialGradient
       inkscape:collect="always"
       xlink:href="#linearGradient123"
       id="radialGradient88"
       gradientUnits="userSpaceOnUse"
       gradientTransform="matrix(4.0000001,0,0,4.0000001,-5.8208336,-7.0114588)"
       cx="1.7528646"
       cy="2.1497395"
       fx="1.7528646"
       fy="2.1497395"
       r="0.033072915" />
    <radialGradient
       inkscape:collect="always"
       xlink:href="#linearGradient123"
       id="radialGradient89"
       gradientUnits="userSpaceOnUse"
       gradientTransform="matrix(4.0000001,0,0,4.0000001,-5.8208336,-6.4822921)"
       cx="1.7528646"
       cy="2.1497395"
       fx="1.7528646"
       fy="2.1497395"
       r="0.033072915" />
    <linearGradient
       inkscape:collect="always"
       xlink:href="#linearGradient94"
       id="linearGradient132"
       gradientUnits="userSpaceOnUse"
       x1="-0.92810869"
       y1="1.3828613"
       x2="-0.92810869"
       y2="1.9823079"
       gradientTransform="matrix(1.3333335,0,0,1.2727274,0.30868061,-0.44498127)" />
    <linearGradient
       inkscape:collect="always"
       xlink:href="#linearGradient123"
       id="linearGradient133"
       gradientUnits="userSpaceOnUse"
       x1="-0.92190754"
       y1="2.3192382"
       x2="-0.92190754"
       y2="2.1104655"
       gradientTransform="matrix(1.3333334,0,0,1.3333331,0.30868067,-0.70555507)" />
    <linearGradient
       inkscape:collect="always"
       xlink:href="#linearGradient123"
       id="linearGradient134"
       gradientUnits="userSpaceOnUse"
       x1="1.6856852"
       y1="2.115633"
       x2="1.6856852"
       y2="1.5843993"
       gradientTransform="translate(0.52916666)" />
    <linearGradient
       inkscape:collect="always"
       xlink:href="#linearGradient94"
       id="linearGradient132-7"
       gradientUnits="userSpaceOnUse"
       x1="-0.92810869"
       y1="1.3828613"
       x2="-0.92810869"
       y2="1.9823079" />
    <linearGradient
       inkscape:collect="always"
       xlink:href="#linearGradient123"
       id="linearGradient133-3"
       gradientUnits="userSpaceOnUse"
       x1="-0.92190754"
       y1="2.3192382"
       x2="-0.92190754"
       y2="2.1104655" />
    <radialGradient
       inkscape:collect="always"
       xlink:href="#linearGradient123"
       id="radialGradient84-8"
       cx="1.7528646"
       cy="2.1497395"
       fx="1.7528646"
       fy="2.1497395"
       r="0.033072915"
       gradientUnits="userSpaceOnUse"
       gradientTransform="matrix(4.0000001,0,0,4.0000001,-4.7625002,-7.0114588)" />
    <radialGradient
       inkscape:collect="always"
       xlink:href="#linearGradient123"
       id="radialGradient85-6"
       gradientUnits="userSpaceOnUse"
       gradientTransform="matrix(4.0000001,0,0,4.0000001,-4.7625002,-6.4822921)"
       cx="1.7528646"
       cy="2.1497395"
       fx="1.7528646"
       fy="2.1497395"
       r="0.033072915" />
    <radialGradient
       inkscape:collect="always"
       xlink:href="#linearGradient123"
       id="radialGradient88-4"
       gradientUnits="userSpaceOnUse"
       gradientTransform="matrix(4.0000001,0,0,4.0000001,-5.8208336,-7.0114588)"
       cx="1.7528646"
       cy="2.1497395"
       fx="1.7528646"
       fy="2.1497395"
       r="0.033072915" />
    <radialGradient
       inkscape:collect="always"
       xlink:href="#linearGradient123"
       id="radialGradient89-3"
       gradientUnits="userSpaceOnUse"
       gradientTransform="matrix(4.0000001,0,0,4.0000001,-5.8208336,-6.4822921)"
       cx="1.7528646"
       cy="2.1497395"
       fx="1.7528646"
       fy="2.1497395"
       r="0.033072915" />
    <linearGradient
       inkscape:collect="always"
       xlink:href="#linearGradient94"
       id="linearGradient153"
       gradientUnits="userSpaceOnUse"
       x1="-0.92810869"
       y1="1.3828613"
       x2="-0.92810869"
       y2="1.9823079" />
    <linearGradient
       inkscape:collect="always"
       xlink:href="#linearGradient123"
       id="linearGradient154"
       gradientUnits="userSpaceOnUse"
       x1="-0.92190754"
       y1="2.3192382"
       x2="-0.92190754"
       y2="2.1104655" />
    <linearGradient
       inkscape:collect="always"
       xlink:href="#linearGradient123"
       id="linearGradient155"
       gradientUnits="userSpaceOnUse"
       gradientTransform="translate(0.52916666)"
       x1="1.6856852"
       y1="2.115633"
       x2="1.6856852"
       y2="1.5843993" />
    <linearGradient
       inkscape:collect="always"
       xlink:href="#linearGradient123"
       id="linearGradient156"
       gradientUnits="userSpaceOnUse"
       gradientTransform="translate(-0.52916666)"
       x1="1.6856852"
       y1="2.115633"
       x2="1.6856852"
       y2="1.5843993" />
    <linearGradient
       inkscape:collect="always"
       xlink:href="#linearGradient117"
       id="linearGradient9"
       gradientUnits="userSpaceOnUse"
       gradientTransform="rotate(180,2.1166668,1.9182272)"
       x1="3.6176074"
       y1="3.3447559"
       x2="3.4423249"
       y2="2.7784448" />
  </defs>
  <g
     inkscape:label="Block Template"
     inkscape:groupmode="layer"
     id="layer1">
    <g
       id="g134"
       inkscape:label="Block Basic">
      <path
         id="path5"
         style="display:inline;fill:#0f0f0f;fill-opacity:1;stroke-width:0.198369"
         d="M 0.79374998,0 A 0.79374995,0.79374998 0 0 0 0,0.79374998 V 3.4395833 A 0.79374995,0.79374992 0 0 0 0.79374998,4.2333332 H 3.4395833 A 0.79375004,0.79374992 0 0 0 4.2333332,3.4406168 V 3.4395833 0.79374998 A 0.79375004,0.79374998 0 0 0 3.4395833,0 Z"
         inkscape:label="Outline" />
      <path
         id="path134"
         style="display:inline;fill:#ffce00;fill-opacity:1;stroke-width:0.263737"
         d="m 0.79374998,0.13229166 a 0.66145831,0.66145831 0 0 0 -0.66145832,0.66145832 0.66145831,0.66145831 0 0 1 0,5.1677e-4 V 3.4390665 3.4395833 A 0.66145831,0.66145831 0 0 0 0.79374998,4.1010416 H 3.4395833 A 0.66145831,0.66145831 0 0 0 4.1010416,3.4395833 V 0.79374998 A 0.66145831,0.66145831 0 0 0 3.4395833,0.13229166 Z"
         inkscape:label="Block Golden" />
      <path
         id="path11"
         style="display:none;fill:#a97c12;fill-opacity:1;stroke-width:0.263737"
         d="m 0.79374998,0.13229166 a 0.66145831,0.66145831 0 0 0 -0.66145832,0.66145832 0.66145831,0.66145831 0 0 1 0,5.1677e-4 V 3.4390665 3.4395833 A 0.66145831,0.66145831 0 0 0 0.79374998,4.1010416 H 3.4395833 A 0.66145831,0.66145831 0 0 0 4.1010416,3.4395833 V 0.79374998 A 0.66145831,0.66145831 0 0 0 3.4395833,0.13229166 Z"
         inkscape:label="Block Empty" />
      <path
         id="path156"
         style="display:none;fill:#0044aa;fill-opacity:1;stroke-width:0.263737"
         d="m 0.79374998,0.13229166 a 0.66145831,0.66145831 0 0 0 -0.66145832,0.66145832 0.66145831,0.66145831 0 0 1 0,5.1677e-4 V 3.4390665 3.4395833 A 0.66145831,0.66145831 0 0 0 0.79374998,4.1010416 H 3.4395833 A 0.66145831,0.66145831 0 0 0 4.1010416,3.4395833 V 0.79374998 A 0.66145831,0.66145831 0 0 0 3.4395833,0.13229166 Z"
         inkscape:label="Block Flash" />
      <path
         id="path157"
         style="display:none;fill:#e3dbdb;fill-opacity:1;stroke-width:0.263737"
         d="m 0.79374998,0.13229166 a 0.66145831,0.66145831 0 0 0 -0.66145832,0.66145832 0.66145831,0.66145831 0 0 1 0,5.1677e-4 V 3.4390665 3.4395833 A 0.66145831,0.66145831 0 0 0 0.79374998,4.1010416 H 3.4395833 A 0.66145831,0.66145831 0 0 0 4.1010416,3.4395833 V 0.79374998 A 0.66145831,0.66145831 0 0 0 3.4395833,0.13229166 Z"
         inkscape:label="Block Flash 2" />
    </g>
    <g
       id="g138"
       inkscape:label="Eyes Reg"
       style="display:inline">
      <g
         id="g135">
        <g
           id="g97"
           transform="translate(2.6458333)">
          <path
             id="path90"
             style="opacity:0.333;fill:url(#linearGradient132);fill-opacity:1;stroke-width:0.342881"
             d="m -0.9260417,1.3229166 c -0.1461253,0 -0.2645833,0.1130735 -0.2645833,0.2525568 v 0.5411932 h 0.52916666 V 1.5754734 c 0,-0.1394833 -0.11845802,-0.2525568 -0.26458336,-0.2525568 z"
             sodipodi:nodetypes="ssccss" />
          <path
             d="M -0.66145834,2.1166666 H -1.190625 a 0.26458337,0.26458328 0 0 0 0.26458328,0.2645833 0.26458337,0.26458328 0 0 0 0.26458338,-0.2645833 z"
             style="opacity:1;fill:url(#linearGradient133);fill-opacity:1;stroke-width:0.350949"
             id="path93" />
        </g>
        <path
           id="rect65"
           style="fill:#0f0f0f;fill-opacity:1;stroke-width:0.261859"
           d="M 1.7197916,1.4552083 C 1.6465016,1.4552083 1.5875,1.5142103 1.5875,1.5875 v 0.5291667 c 0,0.07329 0.059002,0.1322916 0.1322916,0.1322916 0.07329,0 0.1322917,-0.059002 0.1322917,-0.1322916 V 1.5875 c 0,-0.07329 -0.059002,-0.1322917 -0.1322917,-0.1322917 z" />
        <g
           id="g85"
           transform="translate(-0.52916666)">
          <path
             id="path80"
             style="opacity:0.33;fill:url(#linearGradient134);fill-opacity:1;stroke-width:0.258532"
             d="m 2.2158855,2.1166667 a 0.03307291,0.03307291 0 0 0 0.033073,-0.033073 V 1.5544271 a 0.03307291,0.03307291 0 0 0 -0.033073,-0.033073 0.03307291,0.03307291 0 0 0 -0.033073,0.033073 v 0.5291666 a 0.03307291,0.03307291 0 0 0 0.033073,0.033073 z" />
          <circle
             style="opacity:0.25;fill:url(#radialGradient84);stroke-width:1.03413"
             id="circle82"
             cx="2.2489583"
             cy="1.5874999"
             r="0.13229166" />
          <circle
             style="opacity:1;fill:#ffffff;fill-opacity:1;stroke-width:0.258532"
             id="circle79"
             cx="2.2158854"
             cy="1.554427"
             r="0.033072915" />
          <circle
             style="opacity:0.33;fill:url(#radialGradient85);stroke-width:1.03413"
             id="circle84"
             cx="2.2489583"
             cy="2.1166666"
             r="0.13229166" />
        </g>
      </g>
      <g
         id="g137">
        <g
           id="g136">
          <g
             id="g98"
             transform="translate(3.4395833)">
            <path
               id="path97"
               style="opacity:0.333;fill:url(#linearGradient95);fill-opacity:1;stroke-width:0.317446"
               d="m -0.9260417,1.3229166 c -0.1461253,0 -0.2645833,0.1317971 -0.2645833,0.2513542 v 0.5423957 h 0.52916666 V 1.5742708 c 0,-0.1195571 -0.11845799,-0.2513542 -0.26458336,-0.2513542 z"
               sodipodi:nodetypes="ssccss" />
            <path
               d="M -0.66145834,2.1166666 H -1.190625 a 0.26458336,0.26458331 0 0 0 0.26458329,0.2645833 0.26458336,0.26458331 0 0 0 0.26458337,-0.2645833 z"
               style="opacity:1;fill:url(#linearGradient97);fill-opacity:1;stroke-width:0.350949"
               id="path98" />
          </g>
          <path
             id="rect66"
             style="fill:#0f0f0f;fill-opacity:1;stroke-width:0.261859"
             d="m 2.5135416,1.4552083 c -0.07329,0 -0.1322916,0.059002 -0.1322916,0.1322917 v 0.5291667 c 0,0.07329 0.059002,0.1322916 0.1322916,0.1322916 0.07329,0 0.1322917,-0.059002 0.1322917,-0.1322916 V 1.5875 c 0,-0.07329 -0.059002,-0.1322917 -0.1322917,-0.1322917 z" />
        </g>
        <g
           id="g88"
           transform="translate(1.3229167)">
          <path
             id="path86"
             style="opacity:0.33;fill:url(#linearGradient82);fill-opacity:1;stroke-width:0.258532"
             d="m 1.1575521,2.1166667 a 0.03307291,0.03307291 0 0 0 0.033073,-0.033073 V 1.5544271 a 0.03307291,0.03307291 0 0 0 -0.033073,-0.033073 0.03307291,0.03307291 0 0 0 -0.033073,0.033073 v 0.5291666 a 0.03307291,0.03307291 0 0 0 0.033073,0.033073 z" />
          <circle
             style="opacity:0.25;fill:url(#radialGradient88);stroke-width:1.03413"
             id="circle86"
             cx="1.190625"
             cy="1.5874999"
             r="0.13229166" />
          <circle
             style="opacity:1;fill:#ffffff;fill-opacity:1;stroke-width:0.258532"
             id="circle87"
             cx="1.157552"
             cy="1.554427"
             r="0.033072915" />
          <circle
             style="opacity:0.33;fill:url(#radialGradient89);stroke-width:1.03413"
             id="circle88"
             cx="1.190625"
             cy="2.1166666"
             r="0.13229166" />
        </g>
      </g>
    </g>
    <g
       id="g156"
       inkscape:label="Eyes Shut"
       style="display:none">
      <g
         id="g145"
         transform="matrix(-0.70710678,0.70710678,0.70710678,0.70710678,1.4939839,-0.6735855)">
        <g
           id="g139"
           transform="translate(2.6458333)">
          <path
             id="path138"
             style="opacity:0.333;fill:url(#linearGradient153);fill-opacity:1;stroke-width:0.263212"
             d="M -0.92604165,1.3890625 A 0.1984375,0.1984375 0 0 0 -1.1244791,1.5875 v 0.5291666 h 0.39687495 V 1.5875 a 0.1984375,0.1984375 0 0 0 -0.1984375,-0.1984375 z" />
          <path
             d="M -0.72760415,2.1166666 H -1.1244791 a 0.1984375,0.1984375 0 0 0 0.19843745,0.1984375 0.1984375,0.1984375 0 0 0 0.1984375,-0.1984375 z"
             style="opacity:1;fill:url(#linearGradient154);fill-opacity:1;stroke-width:0.263212"
             id="path139" />
        </g>
        <path
           id="path140"
           style="fill:#0f0f0f;fill-opacity:1;stroke-width:0.261859"
           d="M 1.7197916,1.4552083 C 1.6465016,1.4552083 1.5875,1.5142103 1.5875,1.5875 v 0.5291667 c 0,0.07329 0.059002,0.1322916 0.1322916,0.1322916 0.07329,0 0.1322917,-0.059002 0.1322917,-0.1322916 V 1.5875 c 0,-0.07329 -0.059002,-0.1322917 -0.1322917,-0.1322917 z" />
        <g
           id="g144"
           transform="translate(-0.52916666)">
          <path
             id="path141"
             style="opacity:0.11;fill:#ffffff;fill-opacity:1;stroke-width:0.263555"
             d="M 2.2489583,1.5213541 A 0.06614583,0.06614583 0 0 0 2.1828125,1.5875 v 0.5291666 a 0.06614583,0.06614583 0 0 0 0.066146,0.066146 0.06614583,0.06614583 0 0 0 0.066146,-0.066146 V 1.5875 a 0.06614583,0.06614583 0 0 0 -0.066146,-0.066146 z" />
          <path
             id="path142"
             style="opacity:0.5;fill:url(#linearGradient155);fill-opacity:1;stroke-width:0.258532"
             d="m 2.2158855,2.1166667 a 0.03307291,0.03307291 0 0 0 0.033073,-0.033073 V 1.5544271 a 0.03307291,0.03307291 0 0 0 -0.033073,-0.033073 0.03307291,0.03307291 0 0 0 -0.033073,0.033073 v 0.5291666 a 0.03307291,0.03307291 0 0 0 0.033073,0.033073 z" />
          <circle
             style="opacity:0.33;fill:url(#radialGradient84-8);stroke-width:1.03413"
             id="circle142"
             cx="2.2489583"
             cy="1.5874999"
             r="0.13229166" />
          <circle
             style="opacity:1;fill:#ffffff;fill-opacity:1;stroke-width:0.258532"
             id="circle143"
             cx="2.2158854"
             cy="1.554427"
             r="0.033072915" />
          <circle
             style="opacity:0.33;fill:url(#radialGradient85-6);stroke-width:1.03413"
             id="circle144"
             cx="2.2489583"
             cy="2.1166666"
             r="0.13229166" />
        </g>
      </g>
      <g
         id="g152"
         transform="rotate(45,2.5797016,2.0118074)">
        <g
           id="g147">
          <g
             id="g146"
             transform="translate(3.4395833)">
            <path
               id="path145"
               style="opacity:0.333;fill:url(#linearGradient132-7);fill-opacity:1;stroke-width:0.263212"
               d="M -0.92604165,1.3890625 A 0.1984375,0.1984375 0 0 0 -1.1244791,1.5875 v 0.5291666 h 0.39687495 V 1.5875 a 0.1984375,0.1984375 0 0 0 -0.1984375,-0.1984375 z" />
            <path
               d="M -0.72760415,2.1166666 H -1.1244791 a 0.1984375,0.1984375 0 0 0 0.19843745,0.1984375 0.1984375,0.1984375 0 0 0 0.1984375,-0.1984375 z"
               style="opacity:1;fill:url(#linearGradient133-3);fill-opacity:1;stroke-width:0.263212"
               id="path146" />
          </g>
          <path
             id="path147"
             style="fill:#0f0f0f;fill-opacity:1;stroke-width:0.261859"
             d="m 2.5135416,1.4552083 c -0.07329,0 -0.1322916,0.059002 -0.1322916,0.1322917 v 0.5291667 c 0,0.07329 0.059002,0.1322916 0.1322916,0.1322916 0.07329,0 0.1322917,-0.059002 0.1322917,-0.1322916 V 1.5875 c 0,-0.07329 -0.059002,-0.1322917 -0.1322917,-0.1322917 z" />
        </g>
        <g
           id="g151"
           transform="translate(1.3229167)">
          <path
             id="path148"
             style="opacity:0.11;fill:#ffffff;fill-opacity:1;stroke-width:0.263555"
             d="M 1.1906249,1.5213541 A 0.06614583,0.06614583 0 0 0 1.1244791,1.5875 v 0.5291666 a 0.06614583,0.06614583 0 0 0 0.066146,0.066146 0.06614583,0.06614583 0 0 0 0.066146,-0.066146 V 1.5875 a 0.06614583,0.06614583 0 0 0 -0.066146,-0.066146 z" />
          <path
             id="path149"
             style="opacity:0.5;fill:url(#linearGradient156);fill-opacity:1;stroke-width:0.258532"
             d="m 1.1575521,2.1166667 a 0.03307291,0.03307291 0 0 0 0.033073,-0.033073 V 1.5544271 a 0.03307291,0.03307291 0 0 0 -0.033073,-0.033073 0.03307291,0.03307291 0 0 0 -0.033073,0.033073 v 0.5291666 a 0.03307291,0.03307291 0 0 0 0.033073,0.033073 z" />
          <circle
             style="opacity:0.33;fill:url(#radialGradient88-4);stroke-width:1.03413"
             id="circle149"
             cx="1.190625"
             cy="1.5874999"
             r="0.13229166" />
          <circle
             style="opacity:1;fill:#ffffff;fill-opacity:1;stroke-width:0.258532"
             id="circle150"
             cx="1.157552"
             cy="1.554427"
             r="0.033072915" />
          <circle
             style="opacity:0.33;fill:url(#radialGradient89-3);stroke-width:1.03413"
             id="circle151"
             cx="1.190625"
             cy="2.1166666"
             r="0.13229166" />
        </g>
      </g>
    </g>
    <g
       id="g24"
       transform="translate(-1.984375,-4.6302082)"
       style="display:none;stroke:#000000;stroke-width:0.264583;stroke-linecap:round;stroke-linejoin:round;stroke-dasharray:none;stroke-opacity:1;paint-order:stroke fill markers"
       inkscape:label="Qmark"
       sodipodi:insensitive="true">
      <g
         id="path3"
         style="opacity:1">
        <path
           style="baseline-shift:baseline;display:inline;overflow:visible;opacity:0.33;vector-effect:none;stroke:none;stroke-width:0.264681;stroke-linecap:round;stroke-linejoin:round;stroke-dasharray:none;stroke-opacity:1;paint-order:stroke fill markers;enable-background:accumulate;stop-color:#000000;stop-opacity:1"
           d="m 4.1005535,7.1437498 c -0.2175674,0 -0.3963868,0.1790395 -0.3963868,0.3968749 0,0.2178356 0.1788194,0.3968751 0.3963868,0.3968751 h 0.263607 c 0.2175676,10e-8 0.3983394,-0.1790394 0.3983394,-0.3968751 0,-0.2178355 -0.1807718,-0.396875 -0.3983394,-0.3968749 z"
           id="path108"
           sodipodi:nodetypes="sssssss" />
        <path
           style="baseline-shift:baseline;display:inline;overflow:visible;opacity:0.33;vector-effect:none;stroke:none;stroke-width:0.264588;stroke-linecap:round;stroke-linejoin:round;stroke-dasharray:none;stroke-opacity:1;paint-order:stroke fill markers;enable-background:accumulate;stop-color:#000000;stop-opacity:1"
           d="m 3.5723638,5.2916665 c -0.3636574,-2e-7 -0.6619472,0.2964929 -0.6619472,0.6603415 v 0.1328497 c -10e-8,0.144599 0.121037,0.2637459 0.26556,0.2637459 h 0.5291672 c 0.1445231,1e-7 0.2636073,-0.1191469 0.2636074,-0.2637459 H 4.4979185 V 6.3486036 H 3.9707038 3.9687512 C 3.8246129,6.349167 3.7051428,6.470088 3.7051438,6.6143031 v 0.2637458 c 10e-8,0.1445989 0.1190844,0.2656996 0.2636074,0.2656995 h 0.5272146 c 5.732e-4,1.9e-6 0.00138,1.9e-6 0.00195,0 0.1445229,1e-7 0.2655599,-0.1211006 0.26556,-0.2656995 h 0.1308273 c 0.3636574,1e-7 0.6619474,-0.2964929 0.6619473,-0.6603414 V 5.952008 c 0,-0.3638485 -0.29829,-0.6603415 -0.6619473,-0.6603415 H 4.630699 4.365139 Z"
           id="path109"
           sodipodi:nodetypes="sssssccccccsscccssssccs" />
        <path
           style="baseline-shift:baseline;display:inline;overflow:visible;vector-effect:none;fill:#0f0f0f;fill-opacity:1;stroke:none;stroke-width:0.264588;enable-background:accumulate;stop-color:#000000;stop-opacity:1"
           d="m 3.4400719,5.1593749 c -0.3636574,-2e-7 -0.6619472,0.2964929 -0.6619472,0.6603415 v 0.1328497 c -10e-8,0.144599 0.121037,0.2637459 0.26556,0.2637459 h 0.5291672 c 0.1445231,10e-8 0.2636073,-0.1191469 0.2636074,-0.2637459 H 4.3656266 V 6.216312 H 3.8384119 3.8364593 C 3.692321,6.2168754 3.5728509,6.3377964 3.5728519,6.4820115 v 0.2637458 c 1e-7,0.1445989 0.1190844,0.2656996 0.2636074,0.2656995 h 0.5272146 c 5.732e-4,1.9e-6 0.00138,1.9e-6 0.00195,0 0.1445229,10e-8 0.2655599,-0.1211006 0.26556,-0.2656995 h 0.1308273 c 0.3636574,10e-8 0.6619474,-0.2964929 0.6619473,-0.6603414 V 5.8197164 c 0,-0.3638485 -0.29829,-0.6603415 -0.6619473,-0.6603415 h -0.2636041 -0.26556 z"
           id="path106"
           sodipodi:nodetypes="sssssccccccsscccssssccs" />
        <path
           style="baseline-shift:baseline;display:inline;overflow:visible;vector-effect:none;fill:#ffffff;stroke:none;enable-background:accumulate;stop-color:#000000;stop-opacity:1"
           d="m 3.4395833,5.2916666 c -0.2922508,-2e-7 -0.5291667,0.2369158 -0.5291667,0.5291666 V 5.9531249 A 0.13229172,0.13229154 0 0 0 3.0427083,6.0854165 H 3.5718749 A 0.13229154,0.13229172 0 0 0 3.7041666,5.9531249 0.13229166,0.13229166 0 0 1 3.8364583,5.8208332 H 4.3656249 A 0.13229166,0.13229166 0 0 1 4.4979166,5.9531249 V 6.2177082 A 0.13229166,0.13229166 0 0 1 4.3656249,6.3499999 H 3.836975 a 0.13229166,0.13229166 0 0 1 -5.167e-4,0 0.13229166,0.13229166 0 0 1 -5.168e-4,0 0.13229166,0.13229166 0 0 0 -0.1317749,0.1322916 v 0.2645834 a 0.13229166,0.13229166 0 0 0 0.1322917,0.1322916 h 0.5265828 a 0.13229166,0.13229166 0 0 0 0.00258,0 0.13229166,0.13229166 0 0 0 0.1322917,-0.1322916 v -0.00465 A 0.13229166,0.13229166 0 0 1 4.6302082,6.6145832 h 0.1317749 5.168e-4 A 0.52916659,0.52916664 0 0 0 5.2916666,6.0854165 V 5.8208332 A 0.52916659,0.52916664 0 0 0 4.7624999,5.2916666 H 4.4979166 4.2333332 3.4401 Z"
           id="path107" />
        <path
           style="baseline-shift:baseline;display:inline;overflow:visible;opacity:1;vector-effect:none;fill:#0f0f0f;fill-opacity:1;stroke:none;stroke-width:0.264681;stroke-linecap:round;stroke-linejoin:round;stroke-dasharray:none;stroke-opacity:1;paint-order:stroke fill markers;enable-background:accumulate;stop-color:#000000;stop-opacity:1"
           d="m 0.52867824,4.6302083 c -0.21756736,0 -0.39638676,0.1790395 -0.39638676,0.3968749 0,0.2178356 0.1788194,0.3968751 0.39638676,0.3968751 h 0.2636071 c 0.21756756,1e-7 0.39833936,-0.1790394 0.39833936,-0.3968751 0,-0.2178355 -0.1807718,-0.396875 -0.39833936,-0.3968749 z"
           id="path104"
           sodipodi:nodetypes="sssssss"
           transform="translate(3.4395833,2.3812499)" />
        <path
           style="baseline-shift:baseline;display:inline;overflow:visible;opacity:1;vector-effect:none;fill:#ffffff;stroke:none;stroke-width:0.264583;stroke-linecap:round;stroke-linejoin:round;stroke-dasharray:none;stroke-opacity:1;paint-order:stroke fill markers;enable-background:accumulate;stop-color:#000000;stop-opacity:1"
           d="m 0.52916663,4.7624999 a 0.26458332,0.26458332 0 0 0 -0.2645833,0.2645833 0.26458332,0.26458332 0 0 0 0.2645833,0.2645833 0.26458332,0.26458332 0 0 1 5.168e-4,0 h 0.2635498 5.167e-4 A 0.26458332,0.26458332 0 0 0 1.0583334,5.0270832 0.26458332,0.26458332 0 0 0 0.79374993,4.7624999 Z"
           id="path105"
           transform="translate(3.4395833,2.3812499)" />
      </g>
    </g>
    <g
       id="g103"
       style="display:inline"
       inkscape:label="Shines"
       transform="translate(-0.52916666)">
      <g
         id="g131"
         style="display:inline"
         inkscape:label="Shades"
         transform="translate(0.52916666)"
         sodipodi:insensitive="true">
        <path
           id="path14"
           style="display:inline;opacity:0.333;fill:#0f0f0f;fill-opacity:1;stroke-width:0.263737"
           inkscape:label="Shade"
           d="m 0.79374998,0.13229166 c -0.36531334,-10e-9 -0.66145833,0.29614498 -0.66145832,0.66145832 v 5.1677e-4 2.64479975 5.168e-4 c 10e-9,0.3653133 0.29614498,0.6614583 0.66145832,0.6614583 H 3.4395833 c 0.3653133,0 0.6614583,-0.296145 0.6614583,-0.6614583 V 0.79374998 c 0,-0.36531334 -0.296145,-0.66145831 -0.6614583,-0.66145832 z m 0,0.13229167 H 3.4395833 c 0.2922507,2e-8 0.5291666,0.236916 0.5291666,0.52916665 V 3.0427083 c 0,0.2922506 -0.236916,0.5291666 -0.5291666,0.5291666 H 0.79374998 c -0.29225065,0 -0.52916665,-0.2369159 -0.52916665,-0.5291666 V 0.79374998 c 0,-0.29225067 0.23691598,-0.52916666 0.52916665,-0.52916665 z M 0.73535562,3.7703124 H 3.5026285 c 0.036384,0 0.082251,0.033651 0.065629,0.066146 L 3.5005615,3.96875 C 3.4838865,4.001219 3.4708005,4.034896 3.4344155,4.034896 H 0.80770262 c -0.0386935,0 -0.0525471,-0.033677 -0.07028,-0.066146 l -0.072347,-0.1322916 c -0.0177329,-0.032469 0.0315862,-0.066146 0.07028,-0.066146 z" />
        <path
           id="path129"
           style="display:inline;opacity:0.5;fill:url(#linearGradient131);fill-opacity:1;stroke-width:0.263737"
           inkscape:label="Shade 2"
           d="m 0.79374994,0.13229166 c -0.3653133,-10e-9 -0.6614583,0.29614498 -0.6614583,0.66145832 v 5.1677e-4 2.64479975 5.168e-4 c 0,0.3653133 0.296145,0.6614583 0.6614583,0.6614583 H 3.4395833 c 0.3653133,0 0.6614583,-0.296145 0.6614583,-0.6614583 V 0.79374998 c 0,-0.36531334 -0.296145,-0.66145831 -0.6614583,-0.66145832 z m 0,0.13229167 H 3.4395833 c 0.2922507,2e-8 0.5291666,0.236916 0.5291666,0.52916665 V 3.0427083 c 0,0.2922506 -0.236916,0.5291666 -0.5291666,0.5291666 H 0.79374994 c -0.2922506,0 -0.5291666,-0.2369159 -0.5291666,-0.5291666 V 0.79374998 c 0,-0.29225067 0.236916,-0.52916666 0.5291666,-0.52916665 z"
           sodipodi:nodetypes="ssccssssssssssssssss" />
        <path
           id="path36"
           style="display:inline;opacity:0.25;fill:url(#linearGradient37);fill-opacity:1;stroke-width:0.449997"
           d="m 0.79374998,0.39687499 a 0.39687499,0.39687499 0 0 0 -0.3968749,0.396875 V 3.0427083 a 0.39687499,0.39687499 0 0 0 0.3968749,0.396875 H 3.4395833 a 0.39687499,0.39687499 0 0 0 0.396875,-0.396875 V 0.79374999 a 0.39687499,0.39687499 0 0 0 -0.396875,-0.396875 z"
           inkscape:label="Face Shade" />
        <rect
           style="display:inline;opacity:0.84;fill:url(#linearGradient122);fill-opacity:1;fill-rule:nonzero;stroke-width:0.255488"
           id="rect29"
           width="1.3229166"
           height="0.1322915"
           x="-3.4395833"
           y="-3.7041664"
           transform="scale(-1)"
           inkscape:label="Bottom Line half" />
        <rect
           style="opacity:0.84;fill:url(#linearGradient29);fill-opacity:1;fill-rule:nonzero;stroke-width:0.255488"
           id="rect26"
           width="1.3229166"
           height="0.1322915"
           x="0.79374999"
           y="3.5718751"
           inkscape:label="Botto Line Other HalfL" />
      </g>
      <path
         d="m 1.2646028,3.7703124 h 2.7673233 c 0.036384,0 0.082228,0.033651 0.065606,0.066146 l -0.067672,0.1322914 c -0.016675,0.032469 -0.029738,0.066146 -0.066123,0.066146 H 1.336924 c -0.038693,0 -0.052522,-0.033677 -0.070255,-0.066146 L 1.1943478,3.8364584 c -0.017733,-0.032469 0.031561,-0.066146 0.070255,-0.066146 z"
         style="display:inline;opacity:0.33;fill:url(#linearGradient40);fill-opacity:1;stroke-width:0.26369"
         id="path39"
         inkscape:label="Bootom Shine" />
      <path
         id="path18"
         style="display:inline;opacity:0.2;fill:#ffffff;fill-opacity:1;stroke-width:0.264583"
         d="M 0.79374998,0.26458333 A 0.52916664,0.52916664 0 0 0 0.26458333,0.79374998 V 3.0427083 A 0.52916664,0.52916664 0 0 0 0.79374998,3.5718749 H 3.4395833 A 0.52916664,0.52916664 0 0 0 3.9687499,3.0427083 V 0.79374998 A 0.52916664,0.52916664 0 0 0 3.4395833,0.26458333 Z m 0,0.13229166 H 3.4395833 a 0.39687499,0.39687499 0 0 1 0.396875,0.39687499 V 3.0427083 a 0.39687499,0.39687499 0 0 1 -0.396875,0.396875 H 0.79374998 A 0.39687499,0.39687499 0 0 1 0.39687499,3.0427083 V 0.79374998 A 0.39687499,0.39687499 0 0 1 0.79374998,0.39687499 Z"
         inkscape:label="Ring"
         transform="translate(0.52916666)" />
      <g
         id="g102"
         style="display:inline"
         transform="translate(0.52916666)"
         inkscape:label="Corner Shines">
        <path
           id="circle59"
           style="display:inline;opacity:0.333;fill:#ffffff;fill-opacity:1;stroke-width:0.0452729"
           d="M 1.3229166 0.26458333 C 1.300965 0.26477081 1.2790463 0.26632421 1.2572876 0.26923421 C 1.2534476 0.26970955 1.2497276 0.27022835 1.2459188 0.2707845 C 1.2287059 0.2733855 1.211632 0.27683549 1.1947591 0.28111979 C 1.1901291 0.28227479 1.1853891 0.28346114 1.1808065 0.28473714 C 1.1404768 0.29595044 1.1016201 0.31190945 1.0650513 0.33227945 C 1.0595913 0.33533545 1.0543686 0.33885598 1.0490316 0.34209798 C 0.97635606 0.38621308 0.91537975 0.44718944 0.87126464 0.5198649 C 0.86802464 0.5252009 0.86450611 0.53042689 0.86144611 0.53588459 C 0.84107611 0.57245339 0.8251171 0.61131009 0.8139038 0.6516398 C 0.8126238 0.6562228 0.81144645 0.66096083 0.81028645 0.66559243 C 0.80600145 0.68246523 0.80255246 0.6995392 0.79995116 0.7167521 C 0.79939416 0.7205631 0.79887087 0.72428412 0.79840087 0.72812092 C 0.79549087 0.74987962 0.79393799 0.77179828 0.79374999 0.79374998 L 0.79374999 1.3890625 C 0.79375001 1.4254189 0.82308867 1.4549271 0.85937906 1.4552083 L 0.85989582 1.4552083 L 0.86041258 1.4552083 C 0.89551601 1.4532954 0.92608037 1.4242475 0.92604165 1.3890625 L 0.92604165 0.79374998 C 0.92604165 0.57456198 1.1037286 0.39687499 1.3229166 0.39687499 L 2.3151041 0.39687499 C 2.3516351 0.39687497 2.38125 0.36726046 2.38125 0.33072916 C 2.38125 0.29419786 2.3516351 0.26458333 2.3151041 0.26458333 L 2.1161499 0.26458333 L 1.3229166 0.26458333 z M 0.85989582 1.5875 A 0.06614583 0.06614583 0 0 0 0.79374999 1.6536458 L 0.79374999 1.7859375 A 0.06614583 0.06614583 0 0 0 0.85989582 1.8520833 A 0.06614583 0.06614583 0 0 0 0.92604165 1.7859375 L 0.92604165 1.6536458 A 0.06614583 0.06614583 0 0 0 0.85989582 1.5875 z "
           transform="translate(-0.52916666)" />
        <path
           d="m 0.33382975,1.4552083 a 0.06614583,0.06614583 0 0 1 -0.003101,0 0.06614583,0.06614583 0 0 1 -0.0661458,-0.066146 v 0.210323 z"
           style="display:inline;opacity:0.75;fill:url(#linearGradient57);stroke-width:0.264583"
           id="path9" />
        <path
           d="m 1.7859375,0.39687499 -0.99218756,5e-8 c -0.21918795,10e-9 -0.39687495,0.17768695 -0.39687495,0.3968749 V 1.3890625 C 0.54176284,0.95378521 1.350579,0.54151869 1.7859375,0.39687499 Z"
           style="display:inline;opacity:0.75;fill:url(#linearGradient9);stroke-width:0.264583"
           id="path7"
           sodipodi:nodetypes="csscc" />
        <path
           d="m 3.9687499,1.7197916 -1.8520833,1.8464395 0.0072,0.00564 H 3.441491 c 0.2911944,0 0.5272542,-0.2354059 0.5272542,-0.5257936 z"
           style="display:inline;opacity:0.5;fill:url(#linearGradient65);fill-opacity:1;stroke-width:0.263261"
           id="path65" />
      </g>
      <path
         id="path117"
         style="display:inline;opacity:0.11;fill:url(#linearGradient119);fill-opacity:1;stroke-width:0.26369"
         inkscape:label="Bootom Shine"
         d="m 2.6458333,3.7703123 v 0.2645834 h 1.317749 c 0.036385,0 0.049471,-0.033677 0.066146,-0.066146 l 0.067696,-0.1322915 c 0.016622,-0.032495 -0.029245,-0.066146 -0.065629,-0.066146 z" />
      <path
         id="path124"
         style="display:none;opacity:0.5;fill:url(#linearGradient126);fill-opacity:1;fill-rule:nonzero;stroke:none;stroke-width:0.277595;stroke-linecap:round;stroke-linejoin:round;stroke-dasharray:none;stroke-opacity:1;paint-order:stroke fill markers"
         d="m 1.3559896,3.7703124 a 0.03307291,0.03307291 0 0 0 -0.033073,0.033073 0.03307291,0.03307291 0 0 0 0.033073,0.033073 H 3.935677 A 0.03307291,0.03307291 0 0 0 3.96875,3.8033854 0.03307291,0.03307291 0 0 0 3.935677,3.7703124 Z"
         inkscape:label="Bottom Shimmer" />
    </g>
  </g>
</svg>
