<?xml version="1.0" encoding="UTF-8" standalone="no"?>
<!-- Created with Inkscape (http://www.inkscape.org/) -->

<svg
   width="16"
   height="16"
   viewBox="0 0 4.2333333 4.2333332"
   version="1.1"
   id="svg1"
   inkscape:version="1.4.4 (dcaf3e7d9e, 2026-05-05)"
   sodipodi:docname="SMB4_GlassItemBlock.svg"
   xmlns:inkscape="http://www.inkscape.org/namespaces/inkscape"
   xmlns:sodipodi="http://sodipodi.sourceforge.net/DTD/sodipodi-0.dtd"
   xmlns:xlink="http://www.w3.org/1999/xlink"
   xmlns="http://www.w3.org/2000/svg"
   xmlns:svg="http://www.w3.org/2000/svg">
  <sodipodi:namedview
     id="namedview1"
     pagecolor="#ffffff"
     bordercolor="#000000"
     borderopacity="0.25"
     inkscape:showpageshadow="2"
     inkscape:pageopacity="0.0"
     inkscape:pagecheckerboard="true"
     inkscape:deskcolor="#d1d1d1"
     inkscape:document-units="px"
     inkscape:zoom="4"
     inkscape:cx="11"
     inkscape:cy="4.375"
     inkscape:window-width="1536"
     inkscape:window-height="1700"
     inkscape:window-x="0"
     inkscape:window-y="0"
     inkscape:window-maximized="0"
     inkscape:current-layer="layer1" />
  <defs
     id="defs1">
    <linearGradient
       id="linearGradient22"
       inkscape:collect="always">
      <stop
         style="stop-color:#ffffff;stop-opacity:0.63999999;"
         offset="0"
         id="stop23" />
      <stop
         style="stop-color:#ffffff;stop-opacity:1;"
         offset="1"
         id="stop22" />
    </linearGradient>
    <linearGradient
       id="linearGradient20"
       inkscape:collect="always">
      <stop
         style="stop-color:#ffffff;stop-opacity:0.31999999;"
         offset="0"
         id="stop21" />
      <stop
         style="stop-color:#ffffff;stop-opacity:1;"
         offset="1"
         id="stop20" />
    </linearGradient>
    <linearGradient
       id="linearGradient18"
       inkscape:collect="always">
      <stop
         style="stop-color:#ffffff;stop-opacity:0.16174623;"
         offset="0"
         id="stop19" />
      <stop
         style="stop-color:#ffffff;stop-opacity:1;"
         offset="1"
         id="stop18" />
    </linearGradient>
    <linearGradient
       inkscape:collect="always"
       xlink:href="#linearGradient18"
       id="linearGradient19"
       x1="0.52916665"
       y1="1.984375"
       x2="3.4395833"
       y2="1.984375"
       gradientUnits="userSpaceOnUse" />
    <linearGradient
       inkscape:collect="always"
       xlink:href="#linearGradient20"
       id="linearGradient21"
       x1="0.52916665"
       y1="1.1244791"
       x2="1.7197916"
       y2="1.1244791"
       gradientUnits="userSpaceOnUse" />
    <linearGradient
       inkscape:collect="always"
       xlink:href="#linearGradient22"
       id="linearGradient23"
       x1="0.79374998"
       y1="2.2489583"
       x2="3.7041666"
       y2="2.2489583"
       gradientUnits="userSpaceOnUse" />
  </defs>
  <g
     inkscape:label="Layer 1"
     inkscape:groupmode="layer"
     id="layer1">
    <path
       id="path7"
       style="display:inline;opacity:0.16;fill:#16162a;fill-opacity:1;stroke-width:0.807263"
       d="M 0.39687499,0 A 0.39687499,0.39687499 0 0 0 0,0.39687499 V 3.8364583 A 0.39687499,0.39687499 0 0 0 0.39687499,4.2333332 H 0.39739176 3.8364583 A 0.39687499,0.39687499 0 0 0 4.2333332,3.8364583 V 0.39739176 a 0.39687499,0.39687499 0 0 1 0,-5.1677e-4 A 0.39687499,0.39687499 0 0 0 3.8364583,0 Z" />
    <path
       d="M 0.39687499,0 A 0.39687499,0.39687499 0 0 0 0,0.39687499 V 3.8364583 A 0.39687499,0.39687499 0 0 0 0.39687499,4.2333332 H 0.39739176 3.8364583 A 0.39687499,0.39687499 0 0 0 4.2333332,3.8364583 V 0.39739176 a 0.39687499,0.39687499 0 0 1 0,-5.1677e-4 A 0.39687499,0.39687499 0 0 0 3.8364583,0 Z m 0,0.26458333 H 3.8364583 A 0.13229166,0.13229166 0 0 1 3.9687499,0.39687499 V 3.8364583 A 0.13229166,0.13229166 0 0 1 3.8364583,3.9687499 H 0.39687499 A 0.13229166,0.13229166 0 0 1 0.26458333,3.8364583 V 0.39687499 A 0.13229166,0.13229166 0 0 1 0.39687499,0.26458333 Z"
       style="opacity:1;stroke-width:0.807263"
       id="path14" />
    <path
       d="M 0.39687499,0.26458333 A 0.13229166,0.13229166 0 0 0 0.26458333,0.39687499 V 3.8364583 A 0.13229166,0.13229166 0 0 0 0.39687499,3.9687499 H 3.8364583 A 0.13229166,0.13229166 0 0 0 3.9687499,3.8364583 V 0.39687499 A 0.13229166,0.13229166 0 0 0 3.8364583,0.26458333 Z M 0.52916666,0.52916666 H 3.7041666 V 3.7041666 H 0.52916666 Z"
       style="display:inline;opacity:1;fill:#ffffff;stroke-width:0.443469"
       id="path15" />
    <path
       id="rect16"
       style="opacity:1;fill:url(#linearGradient19);fill-opacity:1;stroke-width:0.507636"
       d="m 2.5135416,0.52916666 -1.98437494,1.98437494 -1e-8,0.9260417 2.91041665,-2.91041664 z"
       sodipodi:nodetypes="ccccc" />
    <path
       id="path16"
       style="opacity:1;fill:url(#linearGradient23);fill-opacity:1;stroke-width:0.507636"
       d="m 1.190625,3.7041666 2.5135416,-2.5135416 0,-0.39687502 -2.91041662,2.91041662 z"
       sodipodi:nodetypes="ccccc" />
    <path
       id="path17"
       style="opacity:1;fill:#ffffff;fill-opacity:1;stroke-width:0.507636"
       d="m 3.3072916,3.7041666 0.396875,-0.396875 V 2.6458333 L 2.6458333,3.7041666 Z"
       sodipodi:nodetypes="ccccc" />
    <path
       id="path18"
       style="opacity:1;fill:url(#linearGradient21);fill-opacity:1;stroke-width:0.507636"
       d="M 1.3229166,0.52916666 0.52916665,1.3229167 V 1.7197916 L 1.7197916,0.52916666 Z"
       sodipodi:nodetypes="ccccc" />
  </g>
</svg>
