<?xml version="1.0" encoding="UTF-8" standalone="no"?>
<!-- Created with Inkscape (http://www.inkscape.org/) -->

<svg
   width="16"
   height="16"
   viewBox="0 0 4.2333333 4.2333332"
   version="1.1"
   id="svg1"
   inkscape:version="1.4.4 (dcaf3e7d9e, 2026-05-05)"
   sodipodi:docname="SMB4_TurnBlock.svg"
   xmlns:inkscape="http://www.inkscape.org/namespaces/inkscape"
   xmlns:sodipodi="http://sodipodi.sourceforge.net/DTD/sodipodi-0.dtd"
   xmlns="http://www.w3.org/2000/svg"
   xmlns:svg="http://www.w3.org/2000/svg">
  <sodipodi:namedview
     id="namedview1"
     pagecolor="#ffffff"
     bordercolor="#000000"
     borderopacity="0.25"
     inkscape:showpageshadow="2"
     inkscape:pageopacity="0.0"
     inkscape:pagecheckerboard="true"
     inkscape:deskcolor="#d1d1d1"
     inkscape:document-units="px"
     inkscape:zoom="22.627417"
     inkscape:cx="4.4636116"
     inkscape:cy="7.2699416"
     inkscape:window-width="1536"
     inkscape:window-height="1700"
     inkscape:window-x="0"
     inkscape:window-y="0"
     inkscape:window-maximized="0"
     inkscape:current-layer="layer1" />
  <defs
     id="defs1" />
  <g
     inkscape:label="Layer 1"
     inkscape:groupmode="layer"
     id="layer1">
    <path
       id="path12"
       style="stroke-width:0.269072"
       d="M 0.79374998 0 A 0.79374999 0.79374999 0 0 0 0 0.79374998 L 0 3.4395833 A 0.79374999 0.79374999 0 0 0 0.79374998 4.2333332 L 3.4395833 4.2333332 A 0.79374999 0.79374999 0 0 0 4.2333332 3.4395833 L 4.2333332 0.79374998 A 0.79374999 0.79374999 0 0 0 3.4395833 0 L 0.79374998 0 z " />
    <path
       id="path21"
       style="fill:#d8a038;stroke-width:0.30924;fill-opacity:1"
       d="M 0.79374998 0.26458333 A 0.52916664 0.52916664 0 0 0 0.26458333 0.79374998 L 0.26458333 3.4395833 A 0.52916664 0.52916664 0 0 0 0.79374998 3.9687499 L 3.4395833 3.9687499 A 0.52916664 0.52916664 0 0 0 3.9687499 3.4395833 L 3.9687499 0.79374998 A 0.52916664 0.52916664 0 0 0 3.4395833 0.26458333 L 0.79374998 0.26458333 z " />
    <path
       id="path30"
       style="fill:#d8a038;stroke-width:0.266184;fill-opacity:1"
       d="M 0.79374998 0.26458333 A 0.52916664 0.52916664 0 0 0 0.26458333 0.79374998 L 0.26458333 3.1749999 A 0.52916664 0.52916664 0 0 0 0.79374998 3.7041666 L 3.1749999 3.7041666 L 3.4395833 3.7041666 A 0.26458332 0.26458332 0 0 0 3.7041666 3.4395833 L 3.7041666 3.1755167 A 0.52916664 0.52916664 0 0 0 3.7041666 3.1749999 L 3.7041666 0.79374998 A 0.52916664 0.52916664 0 0 0 3.1749999 0.26458333 L 0.79374998 0.26458333 z " />
    <path
       id="path2"
       style="fill:#f8d820;stroke-width:0.235042;fill-opacity:1"
       d="M 0.79374998 0.52916666 A 0.26458332 0.26458332 0 0 0 0.52916666 0.79374998 L 0.52916666 3.2039387 A 0.24597982 0.23564453 0 0 0 0.77514647 3.4395833 L 3.1749999 3.4395833 A 0.26458332 0.26458332 0 0 0 3.4395833 3.1749999 L 3.4395833 0.79374998 A 0.26458332 0.26458332 0 0 0 3.1749999 0.52916666 L 0.79374998 0.52916666 z " />
    <path
       id="path43"
       style="fill:#ffffff;stroke-width:0.247737"
       d="M 0.79374998 0.26458333 C 0.50170098 0.26458333 0.26486853 0.50118436 0.26458333 0.79323322 L 0.26458333 1.190625 A 0.13229166 0.13229166 0 0 0 0.39687499 1.3229166 A 0.13229166 0.13229166 0 0 0 0.52916666 1.190625 L 0.52916666 0.79374998 C 0.52916666 0.64762462 0.64762462 0.52916662 0.79374998 0.52916666 L 1.190625 0.52916666 C 1.263688 0.52916663 1.3229166 0.46993766 1.3229166 0.39687499 C 1.3229166 0.32381239 1.2636876 0.26458336 1.190625 0.26458333 L 0.79374998 0.26458333 z " />
    <circle
       style="fill:#ffffff;fill-opacity:1;stroke-width:0.244361"
       id="path46"
       cx="0.39687499"
       cy="1.7197917"
       r="0.13229166" />
    <path
       id="rect46-9"
       style="fill:#ffffff;fill-opacity:1;stroke-width:0.23694"
       d="m 1.4552083,1.3890625 c -0.07329,0 -0.1322917,0.059002 -0.1322917,0.1322917 v 0.79375 c 0,0.07329 0.059002,0.1322917 0.1322917,0.1322917 0.07329,0 0.1322917,-0.059002 0.1322917,-0.1322917 v -0.79375 c 0,-0.07329 -0.059002,-0.1322917 -0.1322917,-0.1322917 z m 1.3229166,0 c -0.07329,0 -0.1322916,0.059002 -0.1322916,0.1322917 v 0.79375 c 0,0.07329 0.059002,0.1322917 0.1322916,0.1322917 0.07329,0 0.1322917,-0.059002 0.1322917,-0.1322917 v -0.79375 c 0,-0.07329 -0.059002,-0.1322917 -0.1322917,-0.1322917 z" />
    <path
       id="rect46"
       style="fill:#000000;fill-opacity:1;stroke-width:0.23694"
       d="M 1.4552083 1.3229166 C 1.3819187 1.3229166 1.3229166 1.3819187 1.3229166 1.4552083 L 1.3229166 2.2489583 C 1.3229166 2.3222479 1.3819187 2.38125 1.4552083 2.38125 C 1.5284979 2.38125 1.5875 2.3222479 1.5875 2.2489583 L 1.5875 1.4552083 C 1.5875 1.3819187 1.5284979 1.3229166 1.4552083 1.3229166 z M 2.7781249 1.3229166 C 2.7048354 1.3229166 2.6458333 1.3819187 2.6458333 1.4552083 L 2.6458333 2.2489583 C 2.6458333 2.3222479 2.7048354 2.38125 2.7781249 2.38125 C 2.8514145 2.38125 2.9104166 2.3222479 2.9104166 2.2489583 L 2.9104166 1.4552083 C 2.9104166 1.3819187 2.8514145 1.3229166 2.7781249 1.3229166 z " />
  </g>
</svg>
